<svg width="295" height="224" viewBox="0 0 295 224" fill="none" xmlns="http://www.w3.org/2000/svg">
<path d="M18.9635 10.6651C18.9635 11.0072 18.8919 11.3136 18.7487 11.5841C18.6134 11.8546 18.4265 12.0853 18.1878 12.2763C17.957 12.4593 17.6825 12.6025 17.3643 12.7059C17.046 12.8014 16.7079 12.8491 16.3499 12.8491H12.3041V4.37572H16.6721C16.9665 4.37572 17.233 4.43937 17.4717 4.56667C17.7104 4.69397 17.9133 4.86105 18.0804 5.06791C18.2474 5.26682 18.3747 5.49755 18.4623 5.7601C18.5577 6.0147 18.6055 6.27328 18.6055 6.53584C18.6055 6.94956 18.4981 7.33942 18.2832 7.70541C18.0764 8.06344 17.778 8.32997 17.3882 8.50501C17.8735 8.64822 18.2554 8.91078 18.5339 9.29268C18.8203 9.66662 18.9635 10.1241 18.9635 10.6651ZM17.591 10.4145C17.591 10.2395 17.5592 10.0724 17.4956 9.91327C17.4399 9.75414 17.3603 9.61491 17.2569 9.49556C17.1614 9.37622 17.0421 9.28074 16.8989 9.20914C16.7556 9.13753 16.6005 9.10173 16.4334 9.10173H13.6408V11.6915H16.3499C16.5249 11.6915 16.688 11.6597 16.8392 11.596C16.9903 11.5244 17.1216 11.4329 17.233 11.3215C17.3444 11.2022 17.4319 11.0669 17.4956 10.9158C17.5592 10.7566 17.591 10.5895 17.591 10.4145ZM13.6408 5.53335V8.02763H16.0993C16.2663 8.02763 16.4175 7.99581 16.5528 7.93216C16.696 7.86851 16.8193 7.78497 16.9227 7.68154C17.0341 7.57015 17.1176 7.43887 17.1733 7.2877C17.237 7.13653 17.2688 6.96945 17.2688 6.78646C17.2688 6.42047 17.1654 6.12211 16.9585 5.89138C16.7517 5.65269 16.4891 5.53335 16.1709 5.53335H13.6408ZM23.4477 12.9685C22.9623 12.9685 22.5208 12.8849 22.1229 12.7178C21.7251 12.5428 21.383 12.3081 21.0966 12.0137C20.8181 11.7193 20.5993 11.3772 20.4402 10.9874C20.289 10.5975 20.2134 10.1838 20.2134 9.74618C20.2134 9.30859 20.289 8.89487 20.4402 8.50501C20.5993 8.1072 20.8181 7.7611 21.0966 7.46672C21.383 7.16438 21.7251 6.92967 22.1229 6.76259C22.5208 6.58755 22.9663 6.50004 23.4596 6.50004C23.9449 6.50004 24.3825 6.58755 24.7724 6.76259C25.1702 6.93763 25.5083 7.17234 25.7868 7.46672C26.0653 7.75314 26.2761 8.09128 26.4193 8.48114C26.5705 8.86304 26.6461 9.26483 26.6461 9.68651C26.6461 9.78199 26.6421 9.87348 26.6341 9.961C26.6262 10.0406 26.6182 10.1082 26.6103 10.1639H21.6098C21.6336 10.4424 21.6973 10.693 21.8007 10.9158C21.9121 11.1385 22.0513 11.3335 22.2184 11.5005C22.3935 11.6597 22.5884 11.783 22.8032 11.8705C23.026 11.958 23.2567 12.0018 23.4954 12.0018C23.6704 12.0018 23.8415 11.9819 24.0086 11.9421C24.1836 11.8944 24.3427 11.8307 24.4859 11.7512C24.6292 11.6636 24.7565 11.5602 24.8678 11.4409C24.9792 11.3215 25.0667 11.1902 25.1304 11.047L26.2522 11.3693C26.0374 11.8387 25.6794 12.2246 25.1781 12.5269C24.6848 12.8213 24.108 12.9685 23.4477 12.9685ZM25.3452 9.25687C25.3213 8.99432 25.2537 8.75165 25.1423 8.52888C25.0389 8.3061 24.9036 8.11913 24.7366 7.96796C24.5695 7.80884 24.3746 7.68552 24.1518 7.598C23.929 7.51048 23.6943 7.46672 23.4477 7.46672C23.201 7.46672 22.9663 7.51048 22.7435 7.598C22.5287 7.68552 22.3378 7.80884 22.1707 7.96796C22.0036 8.11913 21.8683 8.3061 21.7649 8.52888C21.6615 8.75165 21.5978 8.99432 21.574 9.25687H25.3452ZM27.5498 9.72232C27.5498 9.28472 27.6254 8.871 27.7766 8.48114C27.9277 8.09128 28.1426 7.74917 28.421 7.45478C28.7074 7.1604 29.0496 6.92967 29.4474 6.76259C29.8452 6.58755 30.2907 6.50004 30.784 6.50004C31.4285 6.50004 31.9814 6.64325 32.4429 6.92967C32.9123 7.20814 33.2624 7.58208 33.4931 8.0515L32.2162 8.45727C32.065 8.19472 31.8621 7.99183 31.6075 7.84862C31.3529 7.69745 31.0705 7.62187 30.7602 7.62187C30.4976 7.62187 30.251 7.67358 30.0202 7.77701C29.7975 7.88044 29.6025 8.02763 29.4354 8.21858C29.2684 8.40158 29.1371 8.62038 29.0416 8.87498C28.9461 9.12957 28.8984 9.41202 28.8984 9.72232C28.8984 10.0247 28.9461 10.3071 29.0416 10.5697C29.145 10.8243 29.2803 11.047 29.4474 11.238C29.6224 11.4289 29.8213 11.5801 30.0441 11.6915C30.2748 11.7949 30.5175 11.8466 30.7721 11.8466C30.9312 11.8466 31.0903 11.8267 31.2495 11.787C31.4086 11.7392 31.5518 11.6756 31.6791 11.596C31.8144 11.5164 31.9297 11.425 32.0252 11.3215C32.1286 11.2181 32.2042 11.1067 32.252 10.9874L33.5409 11.3693C33.334 11.8387 32.9879 12.2246 32.5026 12.5269C32.0172 12.8213 31.4444 12.9685 30.784 12.9685C30.2987 12.9685 29.8571 12.8809 29.4593 12.7059C29.0615 12.5309 28.7194 12.2962 28.433 12.0018C28.1545 11.6994 27.9357 11.3533 27.7766 10.9635C27.6254 10.5736 27.5498 10.1599 27.5498 9.72232Z" fill="#737274"/>
<path d="M255.628 216.103C255.628 216.445 255.557 216.752 255.413 217.022C255.278 217.293 255.091 217.523 254.852 217.714C254.622 217.897 254.347 218.04 254.029 218.144C253.711 218.239 253.373 218.287 253.015 218.287H248.969V209.814H253.337C253.631 209.814 253.898 209.877 254.136 210.005C254.375 210.132 254.578 210.299 254.745 210.506C254.912 210.705 255.039 210.936 255.127 211.198C255.222 211.453 255.27 211.711 255.27 211.974C255.27 212.388 255.163 212.777 254.948 213.143C254.741 213.501 254.443 213.768 254.053 213.943C254.538 214.086 254.92 214.349 255.199 214.731C255.485 215.105 255.628 215.562 255.628 216.103ZM254.256 215.852C254.256 215.677 254.224 215.51 254.16 215.351C254.105 215.192 254.025 215.053 253.922 214.934C253.826 214.814 253.707 214.719 253.564 214.647C253.42 214.576 253.265 214.54 253.098 214.54H250.305V217.129H253.015C253.19 217.129 253.353 217.098 253.504 217.034C253.655 216.962 253.786 216.871 253.898 216.76C254.009 216.64 254.097 216.505 254.16 216.354C254.224 216.195 254.256 216.028 254.256 215.852ZM250.305 210.971V213.466H252.764C252.931 213.466 253.082 213.434 253.217 213.37C253.361 213.306 253.484 213.223 253.587 213.12C253.699 213.008 253.782 212.877 253.838 212.726C253.902 212.575 253.933 212.407 253.933 212.224C253.933 211.858 253.83 211.56 253.623 211.329C253.416 211.091 253.154 210.971 252.836 210.971H250.305ZM260.852 218.406C260.351 218.406 259.909 218.287 259.528 218.048C259.146 217.81 258.843 217.499 258.621 217.118V220.829H257.308V212.045H258.465V213.167C258.704 212.793 259.01 212.495 259.384 212.272C259.766 212.049 260.196 211.938 260.673 211.938C261.103 211.938 261.497 212.026 261.855 212.201C262.213 212.376 262.523 212.61 262.786 212.905C263.048 213.199 263.251 213.541 263.394 213.931C263.545 214.321 263.621 214.731 263.621 215.16C263.621 215.614 263.553 216.039 263.418 216.437C263.283 216.827 263.092 217.169 262.845 217.464C262.599 217.75 262.304 217.981 261.962 218.156C261.628 218.323 261.258 218.406 260.852 218.406ZM260.423 217.285C260.701 217.285 260.952 217.225 261.174 217.106C261.405 216.986 261.6 216.827 261.759 216.628C261.926 216.429 262.054 216.203 262.141 215.948C262.229 215.693 262.272 215.431 262.272 215.16C262.272 214.874 262.221 214.603 262.117 214.349C262.022 214.094 261.887 213.871 261.712 213.68C261.544 213.489 261.342 213.338 261.103 213.227C260.864 213.116 260.606 213.06 260.327 213.06C260.16 213.06 259.985 213.092 259.802 213.155C259.619 213.219 259.448 213.306 259.289 213.418C259.13 213.529 258.99 213.661 258.871 213.812C258.752 213.955 258.668 214.114 258.621 214.289V215.924C258.7 216.115 258.804 216.294 258.931 216.461C259.058 216.628 259.197 216.771 259.349 216.891C259.508 217.01 259.679 217.106 259.862 217.177C260.045 217.249 260.232 217.285 260.423 217.285ZM267.868 218.406C267.383 218.406 266.941 218.323 266.544 218.156C266.146 217.981 265.804 217.746 265.517 217.452C265.239 217.157 265.02 216.815 264.861 216.425C264.71 216.035 264.634 215.622 264.634 215.184C264.634 214.747 264.71 214.333 264.861 213.943C265.02 213.545 265.239 213.199 265.517 212.905C265.804 212.602 266.146 212.368 266.544 212.201C266.941 212.026 267.387 211.938 267.88 211.938C268.366 211.938 268.803 212.026 269.193 212.201C269.591 212.376 269.929 212.61 270.207 212.905C270.486 213.191 270.697 213.529 270.84 213.919C270.991 214.301 271.067 214.703 271.067 215.125C271.067 215.22 271.063 215.311 271.055 215.399C271.047 215.479 271.039 215.546 271.031 215.602H266.03C266.054 215.88 266.118 216.131 266.221 216.354C266.333 216.577 266.472 216.771 266.639 216.939C266.814 217.098 267.009 217.221 267.224 217.308C267.447 217.396 267.677 217.44 267.916 217.44C268.091 217.44 268.262 217.42 268.429 217.38C268.604 217.332 268.763 217.269 268.907 217.189C269.05 217.102 269.177 216.998 269.288 216.879C269.4 216.76 269.487 216.628 269.551 216.485L270.673 216.807C270.458 217.277 270.1 217.663 269.599 217.965C269.105 218.259 268.529 218.406 267.868 218.406ZM269.766 214.695C269.742 214.432 269.674 214.19 269.563 213.967C269.46 213.744 269.324 213.557 269.157 213.406C268.99 213.247 268.795 213.124 268.572 213.036C268.35 212.948 268.115 212.905 267.868 212.905C267.622 212.905 267.387 212.948 267.164 213.036C266.949 213.124 266.758 213.247 266.591 213.406C266.424 213.557 266.289 213.744 266.186 213.967C266.082 214.19 266.018 214.432 265.995 214.695H269.766ZM275.718 215.697L277.711 212.045H279.036V218.287H277.771V214.194L276.064 217.308H275.384L273.665 214.194V218.287H272.4V212.045H273.737L275.718 215.697ZM281.916 215.888C281.558 215.753 281.268 215.538 281.045 215.244C280.822 214.949 280.711 214.564 280.711 214.086C280.711 213.776 280.767 213.497 280.878 213.251C280.989 212.996 281.141 212.781 281.332 212.606C281.522 212.423 281.749 212.284 282.012 212.189C282.282 212.085 282.573 212.033 282.883 212.033H285.461V218.287H284.16V216.103H283.146L281.809 218.287H280.365L281.916 215.888ZM284.16 215.041V213.12H283.002C282.764 213.12 282.541 213.203 282.334 213.37C282.127 213.537 282.024 213.78 282.024 214.098C282.024 214.4 282.115 214.635 282.298 214.802C282.489 214.961 282.712 215.041 282.967 215.041H284.16Z" fill="#737274"/>
<path opacity="0.13" d="M289.668 73.574L288.435 5.36854C241.557 -10.6125 217.764 21.8039 207.492 53.0304C202.897 67.0002 202.562 67.4111 199.275 73.574H289.668Z" fill="#FF7985"/>
<rect x="5.75226" y="204.644" width="0.821752" height="281.039" transform="rotate(-90 5.75226 204.644)" fill="#5BC8C1"/>
<rect x="6.77947" y="73.7794" width="0.410876" height="282.272" transform="rotate(-90 6.77947 73.7794)" stroke="#FF7985" stroke-width="0.410876" stroke-dasharray="10.68 10.68"/>
<rect x="92.2417" y="118.565" width="0.410876" height="85.0514" stroke="#FF7985" stroke-width="0.410876" stroke-dasharray="10.68 10.68"/>
<rect x="5.75226" y="2.49268" width="0.821752" height="201.329" fill="#3fcaff"/>
<path d="M286.792 178.758C141.341 203.411 69.849 65.7672 6.57404 73.5739V203.822H286.792V191.29V178.758Z" fill="#3fcaff" fill-opacity="0.22"/>
<path d="M286.792 178.758C141.341 203.411 69.849 65.7672 6.57404 73.5739V203.822H286.792" stroke="#3fcaff" stroke-width="0.821752"/>
<path d="M5.3418 73.5741C81.2159 73.8587 157.776 203.411 211.19 43.9911C235.021 -17.2294 288.435 5.36871 288.435 5.36871" stroke="#FF7985" stroke-width="0.821752"/>
<circle cx="5.75227" cy="73.1634" r="5.75227" fill="#3fcaff"/>
<circle cx="92.858" cy="112.607" r="5.75227" fill="#3fcaff"/>
<circle cx="288.435" cy="5.77961" r="5.75227" fill="#FF7985"/>
<circle cx="286.792" cy="179.991" r="5.75227" fill="#3fcaff"/>
</svg>
