<svg width="19" height="19" viewBox="0 0 19 19" fill="none" xmlns="http://www.w3.org/2000/svg">
<path d="M9.44766 0.943604C4.59126 0.943604 0.636475 4.89839 0.636475 9.75479C0.636475 14.6112 4.59126 18.566 9.44766 18.566C14.3041 18.566 18.2589 14.6112 18.2589 9.75479C18.2589 4.89839 14.3041 0.943604 9.44766 0.943604ZM9.44766 17.3365C5.26747 17.3365 1.86594 13.9349 1.86594 9.75479C1.86594 5.57464 5.26751 2.17307 9.44766 2.17307C13.6278 2.17307 17.0294 5.57464 17.0294 9.75479C17.0294 13.9349 13.6278 17.3365 9.44766 17.3365Z" fill="#6B686B"/>
<path d="M9.44732 7.91064C9.09899 7.91064 8.83255 8.17707 8.83255 8.52541V13.2384C8.83255 13.5867 9.09898 13.8531 9.44732 13.8531C9.79566 13.8531 10.0621 13.5867 10.0621 13.2384V8.52541C10.0621 8.17708 9.79566 7.91079 9.44732 7.91079V7.91064Z" fill="#6B686B"/>
<path d="M9.44735 5.65649C8.99654 5.65649 8.62778 6.02526 8.62778 6.47607C8.62778 6.92687 8.99654 7.29564 9.44735 7.29564C9.89815 7.29564 10.2669 6.92687 10.2669 6.47607C10.2669 6.02526 9.89815 5.65649 9.44735 5.65649Z" fill="#6B686B"/>
</svg>
